# xmcd
#
# Track frame offsets:
#	150
#	13701
#	27167
#	41136
#	52811
#	69531
#	82689
#	94575
#	107803
#	121009
#	135906
#	149516
#	163942
#	177851
#	204617
#	229826
#	244535
#	258874
#
# Disc length: 3642
#
# Revision: 1
# Processed by: cddbd v1.5.1PL0 Copyright (c) Steve Scherf et al.
# Submitted via: CDex 1.40Release
# Normalized: r0:TDELIM( - )
#
DISCID=e50e3812
DTITLE=Various Artist - Classic Blues Vol 2
DYEAR=1900
DGENRE=Blues
TTITLE0=Victoria Spivey - Moaning The Blues
TTITLE1=Texas Alexander - No More Woman Blues
TTITLE2=Helen Humes - Crosse Eyed Blues
TTITLE3=Ligtnin' Hopkins - T Model Blues
TTITLE4=Eva Taylor - Organ Grinder
TTITLE5=Bo Carter - My Pencil Won' Write No More
TTITLE6=Robert Johnson - Cross Road Blues
TTITLE7=Blind Willie Mc Tell - Dyin' Gambler
TTITLE8=Tampa red - You Can't Get That Stuff No More
TTITLE9=Billie Holiday - Love Me Or Leave Me
TTITLE10=Josh White - While The Blood Runs Warm In Your Veins
TTITLE11=Blind Boy Fuller - Baby You Gotta Change Your Mind
TTITLE12=Blind Will MC Tell - Broke Down Engine
TTITLE13=Joe Carter - Stormy Monday
TTITLE14=Eddie Clearwater - Major daley's Blues
TTITLE15=Lousisana Red - Alabama Train
TTITLE16=Bille Holiday - Gloomy Sunday
TTITLE17=Ethel Walters - Sweet Georgia Brown
EXTD=ID3G: 0
EXTT0=
EXTT1=
EXTT2=
EXTT3=
EXTT4=
EXTT5=
EXTT6=
EXTT7=
EXTT8=
EXTT9=
EXTT10=
EXTT11=
EXTT12=
EXTT13=
EXTT14=
EXTT15=
EXTT16=
EXTT17=
PLAYORDER=
